<svg xmlns="http://www.w3.org/2000/svg" viewBox="0 0 64 64" role="img" aria-label="Cloud CLI Proxy">
  <defs>
    <linearGradient id="ccp-bg" x1="6" y1="5" x2="58" y2="59" gradientUnits="userSpaceOnUse">
      <stop offset="0" stop-color="#06b6d4" />
      <stop offset="1" stop-color="#2563eb" />
    </linearGradient>
    <linearGradient id="ccp-terminal" x1="20" y1="35" x2="44" y2="47" gradientUnits="userSpaceOnUse">
      <stop offset="0" stop-color="#0b1220" />
      <stop offset="1" stop-color="#111827" />
    </linearGradient>
  </defs>
  <rect x="2" y="2" width="60" height="60" rx="16" fill="url(#ccp-bg)" />
  <path
    d="M44.4 26.1C43.3 20.8 38.7 17 33.2 17c-4.4 0-8.3 2.3-10.5 6-4.7.4-8.4 4.2-8.4 8.8 0 4.9 4.1 8.9 9.1 8.9h20.6c4.2 0 7.7-3.3 7.7-7.4 0-3.9-3-7.1-6.9-7.2z"
    fill="#eaf6ff"
  />
  <rect x="18.5" y="33" width="27" height="15.5" rx="4.5" fill="url(#ccp-terminal)" stroke="#d8edff" stroke-width="1.8" />
  <path d="M24.2 40.6l4.2-3.3-4.2-3.3" fill="none" stroke="#67e8f9" stroke-width="2.4" stroke-linecap="round" stroke-linejoin="round" />
  <line x1="31.4" y1="40.7" x2="39.3" y2="40.7" stroke="#67e8f9" stroke-width="2.4" stroke-linecap="round" />
</svg>
